PathFileType	4	(X/Y/Z)	C:\Users\°ÂÌØÂü\Desktop\20210112\bx_y_10_1802-Unnamed.trc
DataRate	CameraRate	NumFrames	NumMarkers	Units	OrigDataRate	OrigDataStartFrame	OrigNumFrames
50.00	50.00	       4	0	mm	50.00	327	       652
Frame#	Time	
		

327	6.520				-775.56445	-95.40107	850.33960	-706.99060	154.19756	215.25003	-697.08026	252.54420	574.28418	-517.85419	-72.54417	143.06071	-598.35394	62.60869	1327.38794				-740.90161	260.09155	501.20261	-644.96185	-13.26415	514.62360	-698.24969	-57.16403	609.82813	-668.42084	-71.70829	158.22334	-746.78394	276.55545	735.76343	-626.20245	-82.56621	156.87534	-882.71173	296.15213	144.50174	-697.07538	-54.43550	559.93524	-605.06140	14.40590	170.85718	-563.15924	-41.36217	163.78032	-596.25159	224.27084	174.02068	-667.49823	299.52820	159.66110	-630.56281	306.93680	162.90730	-561.10504	261.79758	164.95543	-528.26062	303.99075	146.25229	-508.13162	72.90260	1739.96240	-619.85919	244.66940	1460.15918	-746.88550	272.62912	871.34412	-712.30646	70.73982	218.30392	-795.34930	172.48744	185.31824	-770.01044	224.24382	204.77324	-675.91339	51.07105	162.54456	-768.46051	-9.99319	205.34035	-794.26355	55.29227	175.89238	-639.59839	213.30409	531.16821	-750.10522	-54.45501	484.01599	-876.15527	-78.60425	141.36369	-675.36798	174.72769	157.76361	-714.31720	252.64207	626.22333	-748.19861	-74.95348	697.35052	-688.00208	206.65150	831.87787	-662.37347	49.09496	580.74194	-612.52539	-105.87846	1460.58142	-962.37537	81.00806	1022.21753	-653.40533	153.20213	579.12366	-760.75684	-33.06245	1021.39911	
328	6.540				-777.35431	-95.00460	847.59363	-707.03156	154.04990	215.05792	-693.63879	253.16119	573.39600	-517.74310	-72.68900	143.17226	-594.34253	63.43888	1319.26587				-737.48010	260.31372	500.44153	-643.43982	-13.61299	513.94031	-696.30475	-57.44493	609.49371	-668.27728	-71.59863	158.48405	-745.72864	277.24469	733.84088	-626.03436	-82.30749	156.58147	-882.56689	296.15085	144.56075	-694.51965	-55.12341	559.69250	-605.04053	14.76049	170.51294	-562.97357	-41.24136	163.42184	-596.25903	224.23579	173.74336	-667.49823	299.52820	159.66110	-630.42676	306.83466	162.97424	-560.71600	261.77505	164.77031	-528.30621	304.17648	146.15858	-495.12900	73.09003	1729.06030	-612.94440	244.54662	1452.00598	-748.69263	273.39142	869.69696	-712.38910	70.94158	218.02948	-795.26764	172.56281	185.39505	-769.53540	224.18387	205.08450	-675.87628	51.25222	162.20500	-768.77460	-9.88198	205.54527	-794.19434	55.22361	176.09592	-636.60431	214.31728	530.67365	-747.64441	-54.65635	483.95905	-876.03320	-78.59757	141.50241	-675.33887	174.60733	157.48100	-711.58539	253.72047	625.56305	-747.81311	-75.22530	695.17749	-688.80231	206.97963	831.19080	-660.57135	49.11283	580.14069	-605.47241	-104.66363	1451.70679	-964.73865	81.25927	1020.00952	-650.34125	154.30864	578.88489	-763.73572	-32.26152	1017.30011	
329	6.560	-689.53479	-41.00882	817.64783	-779.28424	-94.66846	845.58179	-706.79706	154.01334	215.10706	-690.90967	254.32637	572.70642	-517.84998	-72.66502	143.09702	-590.54871	64.50276	1310.23694				-735.01190	260.97186	499.66980	-641.56659	-13.67251	513.49310	-694.39905	-58.14198	608.84961	-668.03406	-71.37598	158.43156	-745.48041	278.26071	732.16394	-626.07129	-82.50333	156.86638	-882.61115	295.92255	144.45959	-692.68896	-55.73948	559.06146	-604.60925	15.15246	170.16843	-562.82269	-41.17443	163.32417	-595.86237	224.01970	174.05324	-667.14240	299.53278	159.57433	-630.50684	306.87613	163.00256	-560.54388	261.84964	164.58966	-528.31982	304.11014	146.25334	-481.97479	73.25936	1717.20447	-605.96942	244.90152	1443.57202	-750.64734	273.66028	866.72449	-712.24091	71.02129	218.00043	-795.04846	172.50598	185.29857	-769.46057	224.07628	204.98845	-675.88635	51.19387	161.97536	-768.38251	-9.91124	205.30054	-794.12292	55.19052	176.17867	-634.16156	214.91298	530.28400	-746.07495	-54.93809	483.31976	-876.03320	-78.59757	141.50241	-675.30011	174.74214	157.23920	-709.24243	254.52370	624.80890	-747.97791	-75.58105	694.34906	-689.14764	208.46770	831.15637	-658.74670	48.77528	579.94647	-598.76733	-104.36308	1442.60144	-968.90900	81.70170	1017.70636	-647.46503	154.94518	578.35980	-766.27527	-31.79882	1013.69611	
330	6.580	-690.85498	-40.74573	816.45239	-780.84283	-94.67593	843.98840	-706.78168	153.87674	214.93240	-688.41772	254.94383	572.81744	-517.87854	-72.41653	142.99828	-585.50110	65.54657	1301.73389				-732.87970	261.49411	499.42545	-639.59106	-14.53066	512.80621	-693.01978	-58.61276	608.34186	-668.01874	-71.40429	158.42508	-745.53217	278.57751	730.04102	-626.03436	-82.30749	156.58147	-882.66180	295.98282	144.51497	-690.74286	-56.30032	558.63184	-604.45593	15.03013	170.04237	-562.59802	-41.33178	163.11440	-595.46710	223.68587	173.37172	-667.06793	299.29489	159.81003	-630.26501	306.66376	163.06541	-560.19739	261.71576	164.41962	-528.23962	304.12503	146.30989	-469.12830	73.48267	1705.04150	-599.10449	245.47929	1434.90466	-752.67603	273.69943	863.95160	-712.06671	71.08008	217.89630	-794.84668	172.51973	185.38623	-769.12024	224.11131	205.34224	-675.85211	51.19523	161.61795	-768.06714	-9.94560	205.64197	-794.05389	55.22841	176.43520	-631.98236	214.91365	528.83942	-744.61774	-56.15178	483.85147	-875.86237	-78.63821	141.63882	-675.30524	174.38814	157.27463	-706.96442	254.48820	622.91162	-747.69189	-76.08693	692.80444	-690.17767	209.69124	829.37793	-656.90570	48.26339	578.99512	-591.43195	-103.43652	1433.44385	-971.00574	82.54841	1015.17181	-645.12976	155.44438	578.06207	-769.15326	-30.93285	1009.59479	
